<?xml version="1.0" encoding="utf-8"?>
<!-- Generator: Adobe Illustrator 19.0.0, SVG Export Plug-In . SVG Version: 6.00 Build 0)  -->
<svg version="1.1" id="Laag_1" xmlns="http://www.w3.org/2000/svg" xmlns:xlink="http://www.w3.org/1999/xlink" x="0px" y="0px"
	 viewBox="0 0 841.9 595.3" style="enable-background:new 0 0 841.9 595.3;" xml:space="preserve">
<style type="text/css">
	.st0{fill:url(#SVGID_1_);}
	.st1{fill:none;}
	.st2{fill:#58595B;stroke:#808285;stroke-width:0.5;stroke-miterlimit:10;}
</style>
<linearGradient id="SVGID_1_" gradientUnits="userSpaceOnUse" x1="309.3281" y1="428.6794" x2="532.65" y2="205.3576" gradientTransform="matrix(1 -3.000000e-004 3.000000e-004 1 -0.3201 0.3614)">
	<stop  offset="0.1033" style="stop-color:#00984E;stop-opacity:0.6"/>
	<stop  offset="0.1452" style="stop-color:#00A651"/>
	<stop  offset="0.5484" style="stop-color:#00A651"/>
	<stop  offset="0.5538" style="stop-color:#00BBF2"/>
	<stop  offset="0.6031" style="stop-color:#00BBF2"/>
	<stop  offset="0.8925" style="stop-color:#00BBF2"/>
	<stop  offset="0.8931" style="stop-color:#00BCF2;stop-opacity:0.9963"/>
	<stop  offset="0.8965" style="stop-color:#00C0F3;stop-opacity:0.974"/>
	<stop  offset="0.9008" style="stop-color:#1BC4F4;stop-opacity:0.9465"/>
	<stop  offset="0.9069" style="stop-color:#33C6F4;stop-opacity:0.9077"/>
	<stop  offset="0.9236" style="stop-color:#38C6F4;stop-opacity:0.8"/>
</linearGradient>
<path class="st0" d="M491.9,250.1c-9.7,5-19.4,10-28.9,15.5l33.9,58.5l-151.7,0.3l75.6-131.5l30.3,52.3c11-6.4,22.3-12.1,33.6-17.9
	c3.4-1.8,6.8-3.5,10.2-5.3L420.6,93.8l-163,283.6l327.1-0.7l-78-134.4C501.8,244.9,496.9,247.5,491.9,250.1z"/>
<g>
	<rect x="211.8" y="417.3" class="st1" width="418.7" height="41.7"/>
	<path class="st2" d="M268.8,418.3h3.9v23.4c0,2.8,0.1,4.5,0.2,5.2c0.2,1.5,0.6,2.8,1.3,3.8c0.7,1,1.8,1.9,3.2,2.6
		c1.5,0.7,2.9,1,4.4,1c1.3,0,2.5-0.3,3.7-0.8c1.2-0.5,2.2-1.3,3-2.3s1.4-2.1,1.7-3.5c0.3-1,0.4-3,0.4-6.1v-23.4h3.9v23.4
		c0,3.5-0.3,6.3-1,8.4c-0.7,2.1-2,4-4.1,5.6s-4.5,2.4-7.4,2.4c-3.1,0-5.8-0.7-8-2.2c-2.2-1.5-3.7-3.5-4.5-5.9
		c-0.5-1.5-0.7-4.2-0.7-8.2V418.3z"/>
	<path class="st2" d="M302,428.4h3.8v4.2c1.1-1.7,2.3-2.9,3.6-3.7c1.2-0.8,2.5-1.2,3.9-1.2c1,0,2.1,0.3,3.3,1l-1.9,3.1
		c-0.8-0.3-1.4-0.5-2-0.5c-1.2,0-2.4,0.5-3.6,1.5c-1.1,1-2,2.6-2.6,4.7c-0.5,1.6-0.7,4.9-0.7,9.9v9.7H302V428.4z"/>
	<path class="st2" d="M319.9,457.1v-39.8h3.7v16c1.5-1.9,3.3-3.3,5.2-4.3c1.9-0.9,4-1.4,6.3-1.4c4.1,0,7.5,1.5,10.4,4.4
		c2.9,2.9,4.3,6.5,4.3,10.7c0,4.1-1.4,7.7-4.3,10.6c-2.9,2.9-6.4,4.4-10.5,4.4c-2.3,0-4.5-0.5-6.3-1.5c-1.9-1-3.6-2.5-5-4.5v5.3
		H319.9z M334.7,454.3c2.1,0,3.9-0.5,5.7-1.5c1.7-1,3.1-2.4,4.1-4.3s1.5-3.8,1.5-5.8s-0.5-4-1.6-5.8c-1-1.8-2.4-3.3-4.2-4.3
		c-1.7-1-3.6-1.5-5.6-1.5c-2,0-3.9,0.5-5.7,1.5c-1.8,1-3.2,2.4-4.2,4.2c-1,1.7-1.5,3.7-1.5,5.9c0,3.3,1.1,6.1,3.3,8.3
		S331.5,454.3,334.7,454.3z"/>
	<path class="st2" d="M385.1,428.4v28.7h-3.6v-4.9c-1.5,1.9-3.3,3.3-5.2,4.2s-4,1.4-6.3,1.4c-4.1,0-7.5-1.5-10.4-4.4
		s-4.3-6.5-4.3-10.7c0-4.1,1.5-7.7,4.4-10.6s6.4-4.4,10.5-4.4c2.4,0,4.5,0.5,6.4,1.5c1.9,1,3.6,2.5,5,4.5v-5.3H385.1z M370.3,431.2
		c-2.1,0-4,0.5-5.7,1.5s-3.1,2.4-4.1,4.3c-1,1.8-1.5,3.8-1.5,5.8c0,2,0.5,4,1.6,5.8s2.4,3.3,4.2,4.3c1.7,1,3.6,1.5,5.6,1.5
		c2,0,3.9-0.5,5.7-1.5c1.8-1,3.2-2.4,4.2-4.1s1.5-3.7,1.5-5.9c0-3.3-1.1-6.1-3.3-8.3C376.2,432.3,373.5,431.2,370.3,431.2z"/>
	<path class="st2" d="M393.4,428.4h3.7v5.1c1.5-2,3.1-3.4,4.9-4.4c1.8-1,3.7-1.5,5.9-1.5c2.1,0,4,0.5,5.7,1.6s2.9,2.6,3.7,4.4
		s1.2,4.7,1.2,8.6v14.8h-3.7v-13.7c0-3.3-0.1-5.5-0.4-6.6c-0.4-1.9-1.2-3.3-2.5-4.3c-1.2-1-2.8-1.4-4.7-1.4c-2.2,0-4.2,0.7-6,2.2
		c-1.8,1.5-2.9,3.3-3.5,5.5c-0.4,1.4-0.5,4-0.5,7.8v10.5h-3.7V428.4z"/>
	<path class="st2" d="M441.9,457.1v-38.8h8c5.8,0,10,0.5,12.6,1.4c3.8,1.3,6.7,3.6,8.8,6.9s3.2,7.1,3.2,11.6c0,3.9-0.8,7.3-2.5,10.3
		c-1.7,3-3.9,5.1-6.5,6.5c-2.7,1.4-6.4,2.1-11.3,2.1H441.9z M445.6,453.4h4.5c5.4,0,9.1-0.3,11.2-1c2.9-0.9,5.2-2.7,6.9-5.1
		s2.5-5.5,2.5-9c0-3.7-0.9-6.9-2.7-9.6c-1.8-2.7-4.3-4.5-7.6-5.5c-2.4-0.7-6.4-1.1-12-1.1h-2.7V453.4z"/>
	<path class="st2" d="M505.6,447.6l3.1,1.6c-1,2-2.2,3.6-3.5,4.9c-1.3,1.2-2.8,2.2-4.5,2.8c-1.7,0.6-3.6,1-5.7,1
		c-4.7,0-8.3-1.5-11-4.6c-2.6-3.1-4-6.5-4-10.4c0-3.6,1.1-6.9,3.4-9.7c2.8-3.6,6.6-5.4,11.4-5.4c4.9,0,8.8,1.9,11.7,5.6
		c2.1,2.6,3.1,5.9,3.2,9.8h-25.8c0.1,3.3,1.1,6.1,3.2,8.2c2.1,2.1,4.6,3.2,7.6,3.2c1.5,0,2.9-0.3,4.3-0.8s2.6-1.2,3.5-2
		C503.4,450.8,504.5,449.4,505.6,447.6z M505.6,439.8c-0.5-2-1.2-3.5-2.2-4.7c-0.9-1.2-2.2-2.1-3.7-2.8s-3.2-1.1-4.9-1.1
		c-2.8,0-5.2,0.9-7.3,2.7c-1.5,1.3-2.6,3.3-3.4,5.9H505.6z"/>
	<path class="st2" d="M516,417.3h3.7v39.8H516V417.3z"/>
	<path class="st2" d="M530.6,417.7h3.7v10.7h5.9v3.2h-5.9v25.5h-3.7v-25.5h-5v-3.2h5V417.7z"/>
	<path class="st2" d="M574.2,428.4v28.7h-3.6v-4.9c-1.5,1.9-3.3,3.3-5.2,4.2c-1.9,0.9-4,1.4-6.3,1.4c-4.1,0-7.5-1.5-10.4-4.4
		c-2.9-2.9-4.3-6.5-4.3-10.7c0-4.1,1.5-7.7,4.4-10.6s6.4-4.4,10.5-4.4c2.4,0,4.5,0.5,6.4,1.5s3.6,2.5,5,4.5v-5.3H574.2z
		 M559.5,431.2c-2.1,0-4,0.5-5.7,1.5s-3.1,2.4-4.1,4.3c-1,1.8-1.5,3.8-1.5,5.8c0,2,0.5,4,1.6,5.8c1,1.8,2.4,3.3,4.2,4.3
		c1.7,1,3.6,1.5,5.6,1.5c2,0,3.9-0.5,5.7-1.5c1.8-1,3.2-2.4,4.2-4.1s1.5-3.7,1.5-5.9c0-3.3-1.1-6.1-3.3-8.3
		C565.4,432.3,562.7,431.2,559.5,431.2z"/>
</g>
<g>
</g>
<g>
</g>
<g>
</g>
<g>
</g>
<g>
</g>
<g>
</g>
</svg>
